<?xml version="1.0" encoding="utf-8"?>
<!-- Generator: Adobe Illustrator 26.0.1, SVG Export Plug-In . SVG Version: 6.00 Build 0)  -->
<svg version="1.1" id="Layer_1" xmlns="http://www.w3.org/2000/svg" xmlns:xlink="http://www.w3.org/1999/xlink" x="0px" y="0px"
	 viewBox="0 0 1000 1000" style="enable-background:new 0 0 1000 1000;" xml:space="preserve">
<style type="text/css">
	.st0{fill:#C86301;}
</style>
<g>
	<g>
		<g>
			<g>
				<path class="st0" d="M499.18,907.14c-1.64,9.91-13.62,8.3-21.28,8.48h-1.87c-296.89,1.99-458.65-310.16-345.68-577.84
					c2.48-6.01,7.39-9.07,12.31-7.95c9.12,2.17,7.69,14,3.87,21.65C42.46,610.52,200.44,902.5,484.52,895.34
					C491.78,894.6,500.6,898.86,499.18,907.14z"/>
				<path class="st0" d="M853.13,549.11c-55.67,226.18-190.94,309.03-362.75,314.4l-1.89,0.01c-68.72-0.2-138.59-17.12-199.88-50.14
					c-15.73-7.47-5.05-26.73,10.5-17.28c229.84,119.27,487.94,9.65,536.1-259.93c1.46-7.92,5.81-13.42,11.55-13.32
					C856.44,522.85,856.42,539.75,853.13,549.11z"/>
				<path class="st0" d="M178.92,365.38c-5,12.68-9.06,26.15-12.88,39.32c-0.83,2.24-1.99,5.12-3.89,6.52l-1.12,0.76
					c-11.21,4.7-17.81-6.44-13.18-17.47c51.29-220.71,338.97-345.57,520.41-217c13.04,8.06,0.9,25.16-11.15,16.77
					C498.02,82.49,243.3,178.02,178.92,365.38z"/>
				<path class="st0" d="M509.21,210.23c-28.66-1.35-57.64,1.35-85.15,8.91c-31.08,8.55-61.1,22.63-86.98,42.15
					c-14.99,11.2-7.09,18.92,5.29,25.05c36.29,16.23,49.15,67.52,25.53,100.95c-23.76,34.55-75.36,35.78-99.88,0.48
					c-5.14-5.71-10.07-19.87-19.22-16.07c-101.74,178.5,40.4,430.62,241.88,426.65h1.96c113.01,0.89,215.03-76.54,255.15-179.95
					C823.63,442.44,696.76,217.69,509.21,210.23z M491.3,543.52l-2.03-0.07c-56.13-2.24-57.73-86.53,0.99-88.15
					C550.91,453.8,551.81,543.25,491.3,543.52z"/>
				<path class="st0" d="M774.87,791.89l-1.38,0.01c-8.94-0.77-11.25-12.57-4.63-19.06c26.73-28.59,50.17-60.28,68.02-93.47
					c115.79-200.46,19.05-484.87-201.6-556.98c-26.16-9.01-53.93-14.92-82.11-17.71c-16.97-0.22-17.03-22.56,1.16-20.13
					C894.56,114.4,1026.78,563.51,774.87,791.89z"/>
				<path class="st0" d="M796.3,537.16c26.23-158.18-68.46-288.75-186.51-326.4c-9.06-3.95-3.72-22.04,6.74-18.59
					c124.78,37.78,235.16,186.19,196.53,352.98l-1.04,0.92C806.58,549.97,796.05,545.66,796.3,537.16z"/>
			</g>
			<g>
				<path class="st0" d="M186.41,229.33c44.74-69.05,151.34-126.09,228.2-136.53c5.17-0.91,10.23-0.86,11.87,5.45
					c2.18,8.08-0.82,14.58-8.73,14.83c-75.97,9.23-175.62,66.96-219.27,132.77l-1.14,0.31
					C188.98,246.16,178.94,237.84,186.41,229.33z"/>
			</g>
			<g>
				<path class="st0" d="M178.84,613.47c-26.4-82.65-20.4-174.29,20.12-244.63c6.03-9.07,21.77,0.78,17.18,10.04
					c-0.54,1.52-1.33,3.13-2.19,4.82c-64.12,110.6-21.46,301.04,86.79,366.41c8.92,3.26,8.88,15.9,0.94,20.57l-1.17,0.48
					C246.1,750.35,201.2,681.75,178.84,613.47z"/>
			</g>
		</g>
	</g>
</g>
</svg>
