<svg width="27" height="17" viewBox="0 0 27 17" fill="none" xmlns="http://www.w3.org/2000/svg">
<path d="M6.75964 2.38378C6.89553 2.22845 7.06416 2.10378 7.25392 2.01836C7.44368 1.93293 7.65008 1.88876 7.85893 1.88889H9.64286C9.8986 1.88889 10.1439 1.78939 10.3247 1.61227C10.5055 1.43515 10.6071 1.19493 10.6071 0.944445C10.6071 0.693962 10.5055 0.453739 10.3247 0.276622C10.1439 0.0995039 9.8986 8.6175e-08 9.64286 8.6175e-08H7.85893C7.37199 -0.000108806 6.8908 0.102983 6.44837 0.302198C6.00595 0.501414 5.61278 0.792035 5.29586 1.15411L0.811929 6.27772C0.287778 6.87697 -0.000214516 7.64009 1.19886e-07 8.42917V12.75C1.19886e-07 13.8772 0.457173 14.9582 1.27095 15.7552C2.08472 16.5522 3.18844 17 4.33929 17H8.19643C9.34728 17 10.451 16.5522 11.2648 15.7552C12.0785 14.9582 12.5357 13.8772 12.5357 12.75V10.3889H14.4643V12.75C14.4643 13.8772 14.9215 14.9582 15.7352 15.7552C16.549 16.5522 17.6527 17 18.8036 17H22.6607C23.8116 17 24.9153 16.5522 25.7291 15.7552C26.5428 14.9582 27 13.8772 27 12.75V8.42917C26.9999 7.63997 26.7116 6.87683 26.1871 6.27772L21.7032 1.15411C21.3864 0.792156 20.9933 0.501606 20.5511 0.302395C20.1089 0.103185 19.6278 2.74369e-05 19.1411 8.6175e-08H17.3571C17.1014 8.6175e-08 16.8561 0.0995039 16.6753 0.276622C16.4945 0.453739 16.3929 0.693962 16.3929 0.944445C16.3929 1.19493 16.4945 1.43515 16.6753 1.61227C16.8561 1.78939 17.1014 1.88889 17.3571 1.88889H19.1411C19.3498 1.8889 19.556 1.93313 19.7456 2.01855C19.9351 2.10398 20.1036 2.22857 20.2394 2.38378L23.113 5.66667H17.8393C17.0276 5.66646 16.243 5.95279 15.6293 6.47318C15.0156 6.99356 14.614 7.71314 14.498 8.5H12.502C12.386 7.71314 11.9844 6.99356 11.3707 6.47318C10.757 5.95279 9.97243 5.66646 9.16071 5.66667H3.88704L6.75964 2.38378ZM25.0714 8.97222V12.75C25.0714 13.3762 24.8174 13.9768 24.3653 14.4196C23.9132 14.8624 23.3001 15.1111 22.6607 15.1111H18.8036C18.1642 15.1111 17.551 14.8624 17.0989 14.4196C16.6468 13.9768 16.3929 13.3762 16.3929 12.75V8.97222C16.3929 8.5965 16.5452 8.23616 16.8165 7.97049C17.0878 7.70481 17.4557 7.55556 17.8393 7.55556H23.625C24.0086 7.55556 24.3765 7.70481 24.6478 7.97049C24.919 8.23616 25.0714 8.5965 25.0714 8.97222ZM10.6071 8.97222V12.75C10.6071 13.3762 10.3532 13.9768 9.90106 14.4196C9.44896 14.8624 8.83579 15.1111 8.19643 15.1111H4.33929C3.69992 15.1111 3.08675 14.8624 2.63465 14.4196C2.18256 13.9768 1.92857 13.3762 1.92857 12.75V8.97222C1.92857 8.5965 2.08096 8.23616 2.35222 7.97049C2.62348 7.70481 2.99138 7.55556 3.375 7.55556H9.16071C9.54433 7.55556 9.91224 7.70481 10.1835 7.97049C10.4548 8.23616 10.6071 8.5965 10.6071 8.97222Z" fill="#E47204"/>
</svg>
