<svg width="26" height="27" viewBox="0 0 26 27" fill="none" xmlns="http://www.w3.org/2000/svg">
<path fill-rule="evenodd" clip-rule="evenodd" d="M25.4393 18.0834L25.3606 16.2635V15.6565C25.355 15.5595 25.3266 15.4652 25.2778 15.3812C25.2289 15.2972 25.1609 15.2259 25.0793 15.1731C24.7002 15.0045 24.2918 14.9089 23.8756 14.8932C23.3348 14.8782 22.7956 14.9044 22.2578 14.9719C21.7471 15.0079 21.2341 14.9887 20.729 14.9157H20.639V11.1083H23.6742C23.843 11.1083 24.4392 11.1083 24.7981 11.0521C24.9113 11.0365 25.0202 10.9987 25.1187 10.9408C25.2171 10.8829 25.3032 10.8062 25.3718 10.7149C25.4404 10.5831 25.4752 10.4363 25.4731 10.2878C25.4731 10.0854 25.4056 9.77067 25.4056 9.6695V7.99797C25.4056 7.28978 25.5293 6.53776 25.5631 5.80822C25.5858 5.46387 25.5858 5.1184 25.5631 4.77405C25.5434 4.60359 25.4729 4.44299 25.3606 4.31317C25.2256 4.14455 24.9443 3.94334 24.8881 3.87589L22.943 2.05598L21.3815 0.618255C21.2792 0.513874 21.1702 0.416247 21.0552 0.325989C21.0268 0.278486 20.9875 0.238418 20.9406 0.209097C20.8936 0.179776 20.8404 0.162046 20.7852 0.157374C20.3352 0.0809352 19.8815 0.0284772 19.424 0H12.3432C11.432 0 10.5218 0.101169 9.61171 0.179856L6.67771 0.370953H5.79009C5.66024 0.384164 5.53418 0.422334 5.41884 0.483363C5.14359 0.632493 4.89609 0.819843 4.67634 1.04541C4.22746 1.46021 3.79996 1.99977 3.46359 2.3696C3.12609 2.74055 2.55234 3.29136 2.07984 3.72976C1.60846 4.16704 1.11346 4.58295 0.608337 4.99775C0.102087 5.41366 0.237087 5.32373 0.214587 5.89703C0.169587 6.89635 0.135837 7.86195 0.113337 8.91748C0.0570872 11.232 0.0570872 13.6128 0.00083721 15.96V20.2057C-0.00516279 20.423 0.0210872 20.6366 0.0795872 20.8464C0.180837 21.1724 0.945837 21.7895 0.957087 21.8008C2.48484 22.9249 3.94621 24.2041 5.45259 25.3496C6.12759 25.8442 6.81384 26.3163 7.52146 26.7547C7.71384 26.875 7.93434 26.9447 8.16271 26.957C8.49571 26.9863 8.82871 26.9863 9.16171 26.957L11.5456 26.8446C13.1431 26.7884 14.7466 26.6985 16.3561 26.5748C17.9641 26.4512 19.5605 26.2713 21.1452 26.0353C21.8765 25.6711 22.5087 25.136 22.988 24.4739C23.528 23.8669 24.0117 23.1711 24.518 22.564C24.7842 22.3048 25.0351 22.0316 25.2706 21.7446C25.3775 21.5939 25.4506 21.4208 25.4843 21.2387C25.5385 20.8105 25.5573 20.3785 25.5406 19.9471C25.5181 19.2727 25.4618 18.6443 25.4393 18.0834ZM1.26984 20.4417V19.1378L1.11234 15.96C1.11234 13.6128 0.932337 11.2657 0.876087 8.91748V5.91951C0.885346 5.86746 0.885346 5.81418 0.876087 5.76213L1.52859 5.1214L2.65359 4.32329C3.17034 3.91037 3.67584 3.48021 4.17009 3.03282C4.47384 2.74055 4.85634 2.33588 5.29509 1.99865C5.50209 1.81505 5.73046 1.66142 5.98021 1.53777H6.86896L9.73434 1.42536C10.8593 1.31407 11.9821 1.24663 13.1071 1.17918L16.4798 1.01169C17.4698 1.01169 18.47 0.876797 19.4701 0.854316H19.9313L19.4813 1.49505C19.0426 2.06834 18.6263 2.61915 18.2326 3.22504C17.8205 3.7481 17.4702 4.3169 17.1886 4.92018C17.0141 5.69496 16.9199 6.48562 16.9073 7.27967C17.0761 8.89612 17.2561 14.5346 17.2898 16.1634C17.3573 20.4654 17.0086 19.4773 17.7511 20.7464L18.065 21.1848C18.8075 22.3078 19.5713 23.8017 20.2452 24.5537L20.7852 25.2282C19.6602 25.3293 18.47 25.3855 17.3011 25.4305C15.3886 25.4979 13.4783 25.5204 11.5681 25.5092L9.12909 25.6216H8.19534C7.25034 25.1045 6.34134 24.4975 5.44134 23.9354C5.39634 24.0254 1.76596 20.915 1.27096 20.4429M24.3031 20.2181C24.2259 20.7992 23.9613 21.3394 23.5493 21.7569C22.9767 22.4764 22.4266 23.2846 21.8303 24.0029C21.6841 24.1603 21.5491 24.3176 21.4028 24.4638L20.9416 23.9692C20.234 23.2497 19.3801 21.8244 18.5937 20.8138C18.4167 20.5844 18.225 20.3666 18.02 20.1618C18.0762 18.8703 18.1325 17.5674 18.155 16.2646V7.90691C18.155 7.45727 18.0875 7.00764 18.0312 6.55912C18.0049 6.24131 17.956 5.92577 17.885 5.61488C17.8448 5.48762 17.7798 5.36958 17.6937 5.26753C18.0537 4.72796 18.4362 4.19964 18.8187 3.70616C19.2012 3.21268 19.6951 2.63939 20.1665 2.1223C20.1665 2.06609 20.729 1.42648 20.7965 1.58273L22.0891 2.93165L23.8655 4.76281C24.004 4.8915 24.1099 5.05127 24.1745 5.22894C24.2391 5.40662 24.2604 5.59708 24.2367 5.78462C24.2367 6.52652 24.1467 7.30103 24.158 8.03057L24.2705 9.79428V9.99662C24.2705 10.1877 23.618 10.1877 23.5167 10.199L21.1565 10.3114H20.5715V9.90669L20.5152 6.97504L20.4365 6.04203C20.5302 5.85468 20.6427 5.67858 20.774 5.51371C20.9945 5.24542 21.2382 4.9985 21.5052 4.77293C21.5546 4.73151 21.5906 4.67651 21.609 4.61476C21.6273 4.55302 21.627 4.48725 21.6081 4.42566C21.5893 4.36407 21.5528 4.30938 21.5031 4.26839C21.4534 4.2274 21.3927 4.20192 21.3286 4.19514C21.2423 4.18787 21.1565 4.21403 21.089 4.26821C20.7862 4.50268 20.497 4.75413 20.2227 5.02135C20.0285 5.21919 19.8635 5.43989 19.7277 5.68345C19.6491 5.83667 19.6068 6.00589 19.604 6.17805V6.95255L19.4026 9.89545V13.1407C19.4026 14.2199 19.5038 15.2979 19.5713 16.3871L19.7513 18.5207C19.7513 18.7005 19.7513 18.9703 19.8076 19.1839C19.8278 19.3195 19.8653 19.4507 19.9201 19.5773L21.4377 21.4748C21.4733 21.5254 21.5209 21.5662 21.5763 21.5937C21.6317 21.6212 21.6931 21.6345 21.7549 21.6322C21.8167 21.63 21.877 21.6124 21.9302 21.5809C21.9835 21.5495 22.028 21.5053 22.0598 21.4523C22.0991 21.3894 22.1186 21.3161 22.1158 21.2419C22.113 21.1678 22.088 21.0962 22.0441 21.0364L20.7402 19.1951V15.7239C21.269 15.8284 21.809 15.8734 22.3478 15.8588C22.8458 15.8251 23.3442 15.8251 23.843 15.8588C24.0005 15.876 24.1542 15.9098 24.3042 15.96V18.1171C24.2817 18.7578 24.3267 19.4874 24.3042 20.2169" fill="#E47204"/>
<path fill-rule="evenodd" clip-rule="evenodd" d="M2.54193 5.87447C5.29593 5.97564 8.04993 5.7171 10.8039 5.78455C11.6664 5.80253 12.5244 5.86623 13.3779 5.97564C13.9292 6.04309 14.5029 6.11053 15.0542 6.1555H15.7731C16.8294 5.73958 16.9869 5.31242 15.7731 4.90775H14.8731C14.4231 4.90775 13.9731 4.82906 13.5354 4.77286C12.6316 4.68179 11.7235 4.64051 10.8152 4.64921C8.17368 4.64921 5.54343 5.06512 2.94693 5.13257C1.53055 5.32367 1.78818 5.98688 2.54193 5.87447ZM3.92568 21.9581H4.8808C7.05061 22.0135 9.22163 21.9159 11.3777 21.6658C12.8503 21.4972 14.3117 21.2274 15.7731 20.9127C16.8969 20.5979 16.8969 20.3293 15.7731 20.0932C14.2844 20.3598 12.7838 20.5549 11.2764 20.6777C9.16593 20.8407 7.04643 20.8407 4.93705 20.6777H3.65455C2.48568 21.2623 3.0718 21.8007 3.92568 21.9581Z" fill="#9A4C01"/>
</svg>
