<svg width="144" height="46" viewBox="0 0 144 46" fill="none" xmlns="http://www.w3.org/2000/svg">
<path d="M2.09581 37V9.30824H8.78889V31.5644H20.3091V37H2.09581ZM40.5269 9.30824H47.2065V27.17C47.2065 29.2342 46.7152 31.0326 45.7326 32.565C44.7501 34.0884 43.3799 35.2693 41.6222 36.1076C39.8644 36.9369 37.8226 37.3516 35.497 37.3516C33.1443 37.3516 31.089 36.9369 29.3312 36.1076C27.5734 35.2693 26.2078 34.0884 25.2343 32.565C24.2607 31.0326 23.7739 29.2342 23.7739 27.17V9.30824H30.467V26.5885C30.467 27.5441 30.6744 28.3959 31.089 29.1441C31.5127 29.8923 32.1031 30.4782 32.8603 30.9019C33.6175 31.3255 34.4964 31.5374 35.497 31.5374C36.4976 31.5374 37.3719 31.3255 38.1201 30.9019C38.8773 30.4782 39.4677 29.8923 39.8914 29.1441C40.3151 28.3959 40.5269 27.5441 40.5269 26.5885V9.30824ZM51.4015 9.30824H59.6901L66.7212 26.4533H67.0457L74.0768 9.30824H82.3654V37H75.8481V19.9901H75.6183L68.9657 36.8242H64.8012L58.1486 19.8955H57.9188V37H51.4015V9.30824Z" fill="#D9D9D9"/>
<path d="M136.203 16.9208C136.077 15.7399 135.545 14.8204 134.608 14.1624C133.679 13.5044 132.472 13.1753 130.984 13.1753C129.939 13.1753 129.042 13.3331 128.293 13.6486C127.545 13.9641 126.973 14.3923 126.576 14.9331C126.18 15.474 125.977 16.0915 125.968 16.7856C125.968 17.3625 126.098 17.8628 126.36 18.2864C126.63 18.7101 126.995 19.0707 127.455 19.3681C127.915 19.6566 128.424 19.9 128.983 20.0983C129.542 20.2966 130.105 20.4634 130.673 20.5986L133.269 21.2476C134.315 21.491 135.32 21.82 136.285 22.2347C137.258 22.6493 138.128 23.1721 138.894 23.8031C139.669 24.4341 140.282 25.1958 140.733 26.0883C141.184 26.9807 141.409 28.0263 141.409 29.2252C141.409 30.8478 140.995 32.2765 140.165 33.5115C139.336 34.7374 138.137 35.6974 136.569 36.3915C135.009 37.0766 133.121 37.4192 130.903 37.4192C128.749 37.4192 126.878 37.0856 125.292 36.4186C123.714 35.7515 122.479 34.778 121.587 33.498C120.703 32.2179 120.226 30.6585 120.154 28.8196H125.089C125.161 29.7841 125.458 30.5864 125.981 31.2264C126.504 31.8664 127.185 32.3441 128.023 32.6596C128.87 32.9751 129.817 33.1329 130.863 33.1329C131.953 33.1329 132.909 32.9706 133.729 32.6461C134.558 32.3126 135.207 31.8529 135.676 31.2669C136.145 30.672 136.384 29.9779 136.393 29.1846C136.384 28.4635 136.172 27.8686 135.757 27.3998C135.343 26.9221 134.761 26.5254 134.013 26.2099C133.274 25.8854 132.408 25.597 131.417 25.3446L128.266 24.5333C125.986 23.9474 124.183 23.0595 122.858 21.8696C121.542 20.6707 120.884 19.0797 120.884 17.0965C120.884 15.465 121.325 14.0362 122.209 12.8103C123.101 11.5843 124.314 10.6333 125.846 9.95726C127.379 9.27218 129.114 8.92964 131.052 8.92964C133.017 8.92964 134.739 9.27218 136.217 9.95726C137.704 10.6333 138.872 11.5753 139.719 12.7832C140.566 13.9821 141.004 15.3613 141.031 16.9208H136.203Z" fill="#D9D9D9"/>
<path d="M101.532 38.3743C101.47 38.7508 101.015 38.6896 100.724 38.6965H100.653C89.3745 38.7721 83.2296 26.914 87.5211 16.7452C87.6153 16.5169 87.8018 16.4006 87.9887 16.4432C88.3352 16.5256 88.2809 16.975 88.1358 17.2656C84.1823 27.1062 90.1837 38.1981 100.975 37.9261C101.251 37.898 101.586 38.0598 101.532 38.3743Z" fill="#FF6A00"/>
<path d="M114.978 24.7733C112.863 33.3655 107.725 36.5129 101.198 36.7169L101.126 36.7173C98.5156 36.7097 95.8614 36.0669 93.5331 34.8125C92.9355 34.5288 93.3413 33.7971 93.932 34.1561C102.663 38.687 112.468 34.5227 114.297 24.2817C114.353 23.9809 114.518 23.7719 114.736 23.7757C115.104 23.7757 115.103 24.4177 114.978 24.7733Z" fill="#FF6A00"/>
<path d="M89.366 17.7937C89.1761 18.2754 89.0218 18.7871 88.8767 19.2874C88.8452 19.3725 88.8011 19.4819 88.729 19.5351L88.6864 19.564C88.2606 19.7425 88.0098 19.3193 88.1857 18.9003C90.1341 10.5159 101.063 5.77263 107.955 10.6568C108.45 10.963 107.989 11.6126 107.531 11.2939C101.488 7.04714 91.8117 10.6762 89.366 17.7937Z" fill="#FF6A00"/>
<path d="M101.913 11.8998C100.824 11.8485 99.723 11.9511 98.6779 12.2382C97.4973 12.563 96.3569 13.0979 95.3737 13.8395C94.8043 14.2649 95.1044 14.5582 95.5747 14.7911C96.9533 15.4076 97.4418 17.3561 96.5445 18.626C95.6419 19.9385 93.6817 19.9852 92.7503 18.6442C92.555 18.4273 92.3677 17.8894 92.0201 18.0338C88.1552 24.8147 93.5549 34.3924 101.209 34.2416H101.283C105.576 34.2754 109.452 31.3339 110.976 27.4055C113.857 20.7211 109.037 12.1832 101.913 11.8998ZM101.232 24.561L101.155 24.5583C99.0229 24.4732 98.9621 21.2712 101.193 21.2096C103.497 21.1526 103.531 24.5507 101.232 24.561Z" fill="#FF6A00"/>
<path d="M112.005 33.9962L111.953 33.9965C111.613 33.9673 111.526 33.519 111.777 33.2725C112.793 32.1864 113.683 30.9825 114.361 29.7217C118.76 22.1065 115.085 11.3022 106.703 8.56287C105.709 8.22059 104.654 7.99608 103.583 7.89009C102.939 7.88173 102.937 7.03307 103.628 7.12538C116.552 8.25934 121.575 25.3204 112.005 33.9962Z" fill="#FF6A00"/>
<path d="M112.819 24.3193C113.816 18.3103 110.219 13.3502 105.734 11.9199C105.39 11.7698 105.593 11.0826 105.99 11.2137C110.73 12.6489 114.923 18.2868 113.456 24.6229L113.416 24.6578C113.21 24.806 112.81 24.6422 112.819 24.3193Z" fill="#FF6A00"/>
<path d="M89.6513 12.6254C91.3509 10.0023 95.4004 7.83539 98.3201 7.43879C98.5165 7.40422 98.7087 7.40612 98.771 7.64583C98.8539 7.95278 98.7399 8.1997 98.4394 8.2092C95.5535 8.55983 91.768 10.7529 90.1098 13.2529L90.0665 13.2647C89.7489 13.2647 89.3675 12.9486 89.6513 12.6254Z" fill="#FF6A00"/>
<path d="M89.3634 27.2183C88.3605 24.0785 88.5884 20.5972 90.1277 17.9251C90.3568 17.5806 90.9547 17.9548 90.7803 18.3065C90.7598 18.3643 90.7298 18.4254 90.6972 18.4896C88.2614 22.6912 89.8819 29.9257 93.9941 32.409C94.333 32.5328 94.3315 33.013 94.0298 33.1904L93.9854 33.2087C91.9185 32.4181 90.2128 29.8121 89.3634 27.2183Z" fill="#FF6A00"/>
</svg>
