<svg width="28" height="29" viewBox="0 0 28 29" fill="none" xmlns="http://www.w3.org/2000/svg">
<path d="M8.3546 0C6.76411 0 5.47475 1.28831 5.47475 2.87754C5.47475 4.46677 6.76411 5.75508 8.3546 5.75508C9.9451 5.75508 11.2345 4.46675 11.2345 2.87754C11.2345 1.28831 9.9451 0 8.3546 0ZM5.96147 7.23727L2.86673 11.4123C2.74295 11.5772 2.68123 11.7516 2.68123 11.9372L2.31022 15.3698C2.1428 16.8674 4.28616 17.2135 4.5381 15.5864L4.84758 12.4014L5.65204 11.3196L5.68326 15.8029L4.16712 21.2442L0.299121 26.1607C-0.825523 27.9098 1.49892 29.2122 2.68128 27.8307L6.70445 22.6665C6.8125 22.5212 6.87939 22.3268 6.95148 22.1416L8.15909 17.8739L10.8819 20.935L12.3669 27.8621C12.7768 29.7113 15.6233 29.0745 15.2761 27.3052L13.6987 20.1007C13.6611 19.9151 13.6203 19.7094 13.4516 19.5749L10.1098 15.7715V11.0716L11.4093 12.7104C11.5537 12.8959 11.7706 13.0298 12.0594 13.1123L15.123 13.6995L26.4792 28.6342C26.682 28.916 27.2559 28.6352 27.0366 28.2635L16.4535 13.7301C17.698 13.3133 17.0262 11.8969 16.2056 11.7509L12.9254 11.1022L9.55234 6.86561C8.48401 5.8055 6.69737 6.06605 5.96263 7.23632L5.96147 7.23727Z" fill="#E47204"/>
</svg>
