<svg width="28" height="26" viewBox="0 0 28 26" fill="none" xmlns="http://www.w3.org/2000/svg">
<rect width="27.6667" height="25.3333" rx="4" fill="#FF6A00"/>
<path d="M9.16667 17.3333C8.84583 17.3333 8.57118 17.2191 8.34271 16.9906C8.11424 16.7622 8 16.4875 8 16.1667V9.16667C8 8.84583 8.11424 8.57118 8.34271 8.34271C8.57118 8.11424 8.84583 8 9.16667 8H18.5C18.8208 8 19.0955 8.11424 19.324 8.34271C19.5524 8.57118 19.6667 8.84583 19.6667 9.16667V16.1667C19.6667 16.4875 19.5524 16.7622 19.324 16.9906C19.0955 17.2191 18.8208 17.3333 18.5 17.3333H9.16667ZM9.16667 16.1667H18.5V10.3333H9.16667V16.1667ZM11.2083 15.5833L10.3917 14.7667L11.8937 13.25L10.3771 11.7333L11.2083 10.9167L13.5417 13.25L11.2083 15.5833ZM13.8333 15.5833V14.4167H17.3333V15.5833H13.8333Z" fill="white"/>
</svg>
